
<svg fill="#000000" version="1.1" id="Layer_1" xmlns="http://www.w3.org/2000/svg" xmlns:xlink="http://www.w3.org/1999/xlink" 
	 width="4000px" height="4000px" viewBox="0 0 38.911 75.844"
	 xml:space="preserve">
<path d="M33.333,50.077c-2.404-4.207,0-10.805,0-10.805c3.438-8.963-5.051-10.923-10.222-11.306c0,0-0.001,0-0.002,0V13.075
	c0.001,0,0.001-0.001,0.001-0.001c0.674-0.382,1.13-1.1,1.13-1.937V9.704h1.396c0.745,0,1.347-0.597,1.347-1.338
	c0-0.741-0.602-1.339-1.347-1.339H24.24v-0.67h1.396c0.745,0,1.347-0.598,1.347-1.338c0-0.74-0.602-1.338-1.347-1.338H24.24V2.222
	C24.24,1.003,23.23,0,21.98,0h-5.051c-1.226,0-2.236,1.003-2.236,2.222V3.68h-1.395c-0.746,0-1.347,0.598-1.347,1.338
	c0,0.741,0.602,1.338,1.347,1.338h1.395v0.67h-1.395c-0.746,0-1.347,0.598-1.347,1.339c0,0.741,0.602,1.338,1.347,1.338h1.395v1.434
	c0,0.832,0.454,1.546,1.121,1.93v14.899c-5.172,0.36-13.673,2.324-10.236,11.305c0,0,2.429,6.599,0,10.804
	c-2.405,4.184-16.884,22.781,13.276,25.77h1.203C50.217,72.857,35.738,54.258,33.333,50.077z M20.754,7.027v-0.67V3.681V3.346
	c0-0.383,0.287-0.67,0.673-0.67c0.36,0,0.673,0.287,0.673,0.67v0.335v2.676v0.67v2.438c0,0.096-0.023,0.167-0.048,0.239
	c-0.095,0.263-0.337,0.43-0.625,0.43c-0.289,0-0.53-0.167-0.626-0.43c-0.023-0.072-0.047-0.143-0.047-0.239V7.027z M16.833,7.027
	v-0.67V3.681V3.346c0-0.383,0.289-0.67,0.674-0.67c0.36,0,0.673,0.287,0.673,0.67v0.335v2.676v0.67v2.438
	c0,0.096-0.023,0.167-0.048,0.239c-0.096,0.263-0.337,0.43-0.625,0.43c-0.289,0-0.53-0.167-0.626-0.43
	c-0.023-0.072-0.048-0.143-0.048-0.239V7.027z M19.456,42.93c3.103,0,5.626,2.509,5.626,5.593c0,3.083-2.524,5.569-5.626,5.569
	s-5.604-2.486-5.604-5.569C13.851,45.439,16.353,42.93,19.456,42.93z M25.636,63.797H13.298c-0.746,0-1.347-0.598-1.347-1.34
	c0-0.74,0.602-1.338,1.347-1.338h12.338c0.745,0,1.347,0.598,1.347,1.338C26.983,63.2,26.381,63.797,25.636,63.797z"
	fill="white"
    fillOpacity="0.8"
	/>
</svg>